<?xml version="1.0" encoding="UTF-8"?>
<svg version="1.1" xmlns="http://www.w3.org/2000/svg" width="225" height="225">
<path d="M0 0 C74.25 0 148.5 0 225 0 C225 74.25 225 148.5 225 225 C150.75 225 76.5 225 0 225 C0 150.75 0 76.5 0 0 Z " fill="#808080" transform="translate(0,0)"/>
<path d="M0 0 C74.25 0 148.5 0 225 0 C225 19.47 225 38.94 225 59 C150.75 59 76.5 59 0 59 C0 39.53 0 20.06 0 0 Z " fill="#7E7E7E" transform="translate(0,0)"/>
<path d="M0 0 C74.25 0 148.5 0 225 0 C225 8.58 225 17.16 225 26 C150.75 26 76.5 26 0 26 C0 17.42 0 8.84 0 0 Z " fill="#414C54" transform="translate(0,59)"/>
<path d="M0 0 C74.25 0 148.5 0 225 0 C225 7.59 225 15.18 225 23 C150.75 23 76.5 23 0 23 C0 15.41 0 7.82 0 0 Z " fill="#747576" transform="translate(0,85)"/>
<path d="M0 0 C74.25 0 148.5 0 225 0 C225 3.63 225 7.26 225 11 C205.15351124 12.164438 185.32633578 12.14858262 165.4543612 12.1343255 C160.72699446 12.13175134 155.99962942 12.13415344 151.27226257 12.13571167 C143.33555752 12.13751975 135.39886183 12.13516402 127.4621582 12.13037109 C118.36624755 12.12494056 109.27035937 12.1266879 100.17444927 12.1321975 C92.28656238 12.13677908 84.39868214 12.13735454 76.51079434 12.13475883 C71.83436955 12.13322226 67.15795521 12.13292815 62.48153114 12.13629532 C41.62836492 12.14932588 20.83485599 11.9451557 0 11 C0 7.37 0 3.74 0 0 Z " fill="#3B464F" transform="translate(0,59)"/>
<path d="M0 0 C17.49 0 34.98 0 53 0 C53 0.99 53 1.98 53 3 C53.61875 3.309375 54.2375 3.61875 54.875 3.9375 C56.25 4.625 57.625 5.3125 59 6 C59 5.34 59 4.68 59 4 C74.84 4 90.68 4 107 4 C107 8.29 107 12.58 107 17 C52.55 17 -1.9 17 -58 17 C-58 16.67 -58 16.34 -58 16 C-44.47 15.67 -30.94 15.34 -17 15 C-17 13.35 -17 11.7 -17 10 C-18.54324951 10.00785522 -18.54324951 10.00785522 -20.11767578 10.01586914 C-23.95311607 10.03403812 -27.78855259 10.04547535 -31.62402344 10.05493164 C-33.28060548 10.05994473 -34.93718313 10.06675689 -36.59375 10.07543945 C-38.98178189 10.08763793 -41.36975502 10.09325867 -43.7578125 10.09765625 C-44.85973434 10.10539818 -44.85973434 10.10539818 -45.98391724 10.11329651 C-50.09778822 10.11374023 -53.96450609 9.80210299 -58 9 C-58 8.67 -58 8.34 -58 8 C-44.47 7.67 -30.94 7.34 -17 7 C-17 6.01 -17 5.02 -17 4 C-16.34 4 -15.68 4 -15 4 C-15 3.34 -15 2.68 -15 2 C-13.68 2.66 -12.36 3.32 -11 4 C-11 4.99 -11 5.98 -11 7 C-10.34 7.33 -9.68 7.66 -9 8 C-9 7.34 -9 6.68 -9 6 C-5.7 5.67 -2.4 5.34 1 5 C0.34 4.67 -0.32 4.34 -1 4 C-0.67 2.68 -0.34 1.36 0 0 Z M46 5 C46 5.33 46 5.66 46 6 C48.31 6 50.62 6 53 6 C53 5.34 53 4.68 53 4 C50.57202689 4 48.37092995 4.50085685 46 5 Z " fill="#646464" transform="translate(118,109)"/>
<path d="M0 0 C74.25 0 148.5 0 225 0 C225 2.31 225 4.62 225 7 C150.75 7 76.5 7 0 7 C0 4.69 0 2.38 0 0 Z " fill="#475661" transform="translate(0,78)"/>
<path d="M0 0 C74.25 0 148.5 0 225 0 C225 1.98 225 3.96 225 6 C150.75 6 76.5 6 0 6 C0 4.02 0 2.04 0 0 Z " fill="#5B676E" transform="translate(0,0)"/>
<path d="M0 0 C74.25 0 148.5 0 225 0 C225 1.65 225 3.3 225 5 C209.16 5 193.32 5 177 5 C177 5.66 177 6.32 177 7 C175.35 7 173.7 7 172 7 C170.9375 5.125 170.9375 5.125 170 3 C170.33 2.34 170.66 1.68 171 1 C153.51 1 136.02 1 118 1 C117.67 2.32 117.34 3.64 117 5 C118.65 5 120.3 5 122 5 C118.68629 7.20914 117.6553979 7.22481553 113.8125 7.125 C112.91144531 7.10695313 112.01039062 7.08890625 111.08203125 7.0703125 C110.39496094 7.04710938 109.70789063 7.02390625 109 7 C109 7.66 109 8.32 109 9 C107.35 9 105.7 9 104 9 C104 7.35 104 5.7 104 4 C103.67 4.33 103.34 4.66 103 5 C103 5.66 103 6.32 103 7 C88.81 7 74.62 7 60 7 C60 7.66 60 8.32 60 9 C57.03 9 54.06 9 51 9 C51 9.66 51 10.32 51 11 C49.35 11 47.7 11 46 11 C45.505 9.02 45.505 9.02 45 7 C44.34 7 43.68 7 43 7 C42.67 8.32 42.34 9.64 42 11 C37.33333333 11 32.66666667 11 28 11 C28 11.66 28 12.32 28 13 C18.76 13 9.52 13 0 13 C0 8.71 0 4.42 0 0 Z M36 1 C36 1.66 36 2.32 36 3 C34.35 3.66 32.7 4.32 31 5 C33.86875 7.34583333 33.86875 7.34583333 37.375 6.8125 C40.98092633 6.2058833 40.98092633 6.2058833 43.6875 4.375 C46 3 46 3 48.3125 3.3125 C48.869375 3.539375 49.42625 3.76625 50 4 C48.35 4.33 46.7 4.66 45 5 C45.33 5.66 45.66 6.32 46 7 C48.18771244 6.85738906 50.37516282 6.71075539 52.5625 6.5625 C53.78066406 6.48128906 54.99882813 6.40007812 56.25390625 6.31640625 C58.58740501 6.11931199 60.91741497 5.85615566 63.23095703 5.4934082 C67.18559581 4.97570351 71.07068667 4.83049949 75.05078125 4.7890625 C76.56837095 4.76103682 78.08594898 4.73237278 79.60351562 4.703125 C81.97143751 4.66163883 84.33913037 4.62470679 86.70727539 4.59863281 C89.00971925 4.57115226 91.3112037 4.52534328 93.61328125 4.4765625 C94.32470779 4.47330963 95.03613434 4.47005676 95.76911926 4.46670532 C97.97703392 4.44523264 97.97703392 4.44523264 101 4 C101.66 3.01 102.32 2.02 103 1 C80.89 1 58.78 1 36 1 Z M30 7 C34 8 34 8 34 8 Z M171 5 C171 5.66 171 6.32 171 7 C168.69 7 166.38 7 164 7 C164 6.67 164 6.34 164 6 C168.75 5 168.75 5 171 5 Z M44 9 C44.33 9.66 44.66 10.32 45 11 C44.34 10.67 43.68 10.34 43 10 C43.33 9.67 43.66 9.34 44 9 Z " fill="#C8CCCF" transform="translate(0,108)"/>
<path d="M0 0 C74.25 0 148.5 0 225 0 C225 0.99 225 1.98 225 3 C205.15351124 4.164438 185.32633578 4.14858262 165.4543612 4.1343255 C160.72699446 4.13175134 155.99962942 4.13415344 151.27226257 4.13571167 C143.33555752 4.13751975 135.39886183 4.13516402 127.4621582 4.13037109 C118.36624755 4.12494056 109.27035937 4.1266879 100.17444927 4.1321975 C92.28656238 4.13677908 84.39868214 4.13735454 76.51079434 4.13475883 C71.83436955 4.13322226 67.15795521 4.13292815 62.48153114 4.13629532 C41.62985646 4.14932495 20.83291875 3.96526179 0 3 C0 2.01 0 1.02 0 0 Z " fill="#394148" transform="translate(0,67)"/>
<path d="M0 0 C74.25 0 148.5 0 225 0 C225 0.99 225 1.98 225 3 C150.75 3 76.5 3 0 3 C0 2.01 0 1.02 0 0 Z " fill="#828C95" transform="translate(0,56)"/>
<path d="M0 0 C74.25 0 148.5 0 225 0 C225 0.99 225 1.98 225 3 C150.75 3 76.5 3 0 3 C0 2.01 0 1.02 0 0 Z " fill="#46494C" transform="translate(0,53)"/>
<path d="M0 0 C74.25 0 148.5 0 225 0 C225 0.99 225 1.98 225 3 C150.75 3 76.5 3 0 3 C0 2.01 0 1.02 0 0 Z " fill="#717F8B" transform="translate(0,64)"/>
<path d="M0 0 C74.25 0 148.5 0 225 0 C225 0.99 225 1.98 225 3 C150.75 3 76.5 3 0 3 C0 2.01 0 1.02 0 0 Z " fill="#8E9499" transform="translate(0,50)"/>
<path d="M0 0 C74.25 0 148.5 0 225 0 C225 0.99 225 1.98 225 3 C150.75 3 76.5 3 0 3 C0 2.01 0 1.02 0 0 Z " fill="#727F8A" transform="translate(0,70)"/>
<path d="M0 0 C74.25 0 148.5 0 225 0 C225 0.99 225 1.98 225 3 C150.75 3 76.5 3 0 3 C0 2.01 0 1.02 0 0 Z " fill="#727F8A" transform="translate(0,78)"/>
<path d="M0 0 C22.11 0 44.22 0 67 0 C66.34 0.99 65.68 1.98 65 3 C62.38018418 3.326234 59.98463795 3.46496663 57.359375 3.4765625 C56.59957336 3.49214203 55.83977173 3.50772156 55.0569458 3.52377319 C52.62130863 3.57137715 50.18595597 3.59904979 47.75 3.625 C45.32853322 3.66162318 42.90722259 3.70245057 40.48590088 3.74765015 C38.97895398 3.77461882 37.47189519 3.79607953 35.96478271 3.81118774 C31.87426652 3.87168991 28.01879103 4.25451534 24 5 C21.37290545 5.2149441 18.75519682 5.40703294 16.125 5.5625 C15.43664062 5.60568359 14.74828125 5.64886719 14.0390625 5.69335938 C12.359545 5.79832922 10.67979414 5.89955429 9 6 C9 5.34 9 4.68 9 4 C10.65 3.67 12.3 3.34 14 3 C12.25328412 2.20643199 12.25328412 2.20643199 10 2 C8.32936253 2.99335201 6.66324401 3.99431758 5 5 C1.375 5.8125 1.375 5.8125 -2 6 C-2.99 5.34 -3.98 4.68 -5 4 C-3.35 3.34 -1.7 2.68 0 2 C0 1.34 0 0.68 0 0 Z M-6 6 C-2 7 -2 7 -2 7 Z M13 6 C15 7 15 7 15 7 Z M7 6 C7.66 6 8.32 6 9 6 C9 6.66 9 7.32 9 8 C9.61875 8.144375 10.2375 8.28875 10.875 8.4375 C13 9 13 9 15 10 C15 9.34 15 8.68 15 8 C16.65 8 18.3 8 20 8 C19.67 8.99 19.34 9.98 19 11 C19.66 11.66 20.32 12.32 21 13 C20.195625 13.12375 19.39125 13.2475 18.5625 13.375 C17.716875 13.58125 16.87125 13.7875 16 14 C15.67 14.66 15.34 15.32 15 16 C16.32 16 17.64 16 19 16 C19 15.34 19 14.68 19 14 C22 15 22 15 23 17 C3.53 17 -15.94 17 -36 17 C-36 15.35 -36 13.7 -36 12 C-26.76 12 -17.52 12 -8 12 C-8 11.34 -8 10.68 -8 10 C-6.02 10 -4.04 10 -2 10 C-2 9.34 -2 8.68 -2 8 C0.875 7.875 0.875 7.875 4 8 C4.66 8.66 5.32 9.32 6 10 C6.33 8.68 6.66 7.36 7 6 Z M8 8 C7.67 8.66 7.34 9.32 7 10 C7.66 10 8.32 10 9 10 C8.67 9.34 8.34 8.68 8 8 Z " fill="#0E0F10" transform="translate(36,109)"/>
<path d="M0 0 C11.88 0 23.76 0 36 0 C35.34 1.65 34.68 3.3 34 5 C38.88360914 4.52121479 41.85267477 3.51022317 46 1 C48.8125 0.8125 48.8125 0.8125 51 1 C51 1.99 51 2.98 51 4 C49.02 4 47.04 4 45 4 C45 4.66 45 5.32 45 6 C44.34 6 43.68 6 43 6 C42.67 7.32 42.34 8.64 42 10 C37.33333333 10 32.66666667 10 28 10 C28 10.66 28 11.32 28 12 C18.76 12 9.52 12 0 12 C0 8.04 0 4.08 0 0 Z M30 6 C34 7 34 7 34 7 Z " fill="#898989" transform="translate(0,109)"/>
<path d="M0 0 C11.55 0 23.1 0 35 0 C35 0.99 35 1.98 35 3 C35.928125 3.433125 35.928125 3.433125 36.875 3.875 C39 5 39 5 41 7 C35.63352119 8.12978501 30.4504435 8.08443028 25 8 C24.01 8 23.02 8 22 8 C21.67 7.67 21.34 7.34 21 7 C20.01 7.33 19.02 7.66 18 8 C18 8.66 18 9.32 18 10 C14.04 9.67 10.08 9.34 6 9 C7.32 7.35 8.64 5.7 10 4 C6.7 4 3.4 4 0 4 C-0.33 3.34 -0.66 2.68 -1 2 C-0.67 1.34 -0.34 0.68 0 0 Z M28 5 C28 5.33 28 5.66 28 6 C30.31 6 32.62 6 35 6 C35 5.34 35 4.68 35 4 C32.57202689 4 30.37092995 4.50085685 28 5 Z M-7 4 C-4.69 4 -2.38 4 0 4 C-0.33 4.99 -0.66 5.98 -1 7 C-0.67 6.67 -0.34 6.34 0 6 C1.66617115 5.95936168 3.33388095 5.957279 5 6 C4.01 6.33 3.02 6.66 2 7 C2 7.99 2 8.98 2 10 C-0.78863007 11.39431504 -2.92078868 11.25660094 -6 11 C-6.66 10.01 -7.32 9.02 -8 8 C-7.34 7.34 -6.68 6.68 -6 6 C-6.33 5.34 -6.66 4.68 -7 4 Z M41 4 C56.84 4 72.68 4 89 4 C89 4.33 89 4.66 89 5 C73.16 5.33 57.32 5.66 41 6 C41 5.34 41 4.68 41 4 Z M33 8 C35 9 35 9 35 9 Z M7 10 C8.65 10 10.3 10 12 10 C12 10.33 12 10.66 12 11 C10.35 11 8.7 11 7 11 C7 10.67 7 10.34 7 10 Z " fill="#4C4C4C" transform="translate(136,109)"/>
<path d="M0 0 C3.63 0 7.26 0 11 0 C10.01 1.485 10.01 1.485 9 3 C9 3.99 9 4.98 9 6 C8.68911632 7.67099977 8.35919668 9.33871537 8 11 C1.25 10.25 1.25 10.25 -1 8 C-3.68839385 7.73008094 -6.29141936 7.91262643 -9 8 C-9 7.34 -9 6.68 -9 6 C-5.7 5.67 -2.4 5.34 1 5 C0.34 4.67 -0.32 4.34 -1 4 C-0.67 2.68 -0.34 1.36 0 0 Z M-15 2 C-13.68 2.66 -12.36 3.32 -11 4 C-11 4.99 -11 5.98 -11 7 C-10.34 7.33 -9.68 7.66 -9 8 C-9 8.66 -9 9.32 -9 10 C-9.66 10.66 -10.32 11.32 -11 12 C-11 12.99 -11 13.98 -11 15 C-10.34 15.33 -9.68 15.66 -9 16 C-9 15.34 -9 14.68 -9 14 C-6.36 14 -3.72 14 -1 14 C-1.33 14.99 -1.66 15.98 -2 17 C-20.48 17 -38.96 17 -58 17 C-58 16.67 -58 16.34 -58 16 C-44.47 15.67 -30.94 15.34 -17 15 C-17 13.35 -17 11.7 -17 10 C-18.54324951 10.00785522 -18.54324951 10.00785522 -20.11767578 10.01586914 C-23.95311607 10.03403812 -27.78855259 10.04547535 -31.62402344 10.05493164 C-33.28060548 10.05994473 -34.93718313 10.06675689 -36.59375 10.07543945 C-38.98178189 10.08763793 -41.36975502 10.09325867 -43.7578125 10.09765625 C-44.85973434 10.10539818 -44.85973434 10.10539818 -45.98391724 10.11329651 C-50.09778822 10.11374023 -53.96450609 9.80210299 -58 9 C-58 8.67 -58 8.34 -58 8 C-44.47 7.67 -30.94 7.34 -17 7 C-17 6.01 -17 5.02 -17 4 C-16.34 4 -15.68 4 -15 4 C-15 3.34 -15 2.68 -15 2 Z " fill="#000000" transform="translate(118,109)"/>
<path d="M0 0 C17.82 0 35.64 0 54 0 C54 1.32 54 2.64 54 4 C38.16 4 22.32 4 6 4 C6 4.66 6 5.32 6 6 C4.35 6 2.7 6 1 6 C-0.0625 4.125 -0.0625 4.125 -1 2 C-0.67 1.34 -0.34 0.68 0 0 Z M0 4 C0 4.66 0 5.32 0 6 C-2.31 6 -4.62 6 -7 6 C-7 5.67 -7 5.34 -7 5 C-2.25 4 -2.25 4 0 4 Z " fill="#777777" transform="translate(171,109)"/>
<path d="M0 0 C0 1.32 0 2.64 0 4 C-1.65 4.33 -3.3 4.66 -5 5 C-4.67 6.65 -4.34 8.3 -4 10 C-5.98 10.99 -5.98 10.99 -8 12 C-5.525 12.495 -5.525 12.495 -3 13 C-3 13.33 -3 13.66 -3 14 C-5.31 14 -7.62 14 -10 14 C-10 14.66 -10 15.32 -10 16 C-15.54110492 16.71180202 -20.48618017 17.27241996 -26 16 C-26.33 16 -26.66 16 -27 16 C-28.66666667 16 -30.33333333 16 -32 16 C-32 14.35 -32 12.7 -32 11 C-30.35 10.67 -28.7 10.34 -27 10 C-26.67 9.01 -26.34 8.02 -26 7 C-21.83861737 6.91840426 -18.0527516 7.01751476 -14 8 C-14.33 8.66 -14.66 9.32 -15 10 C-14.01 9.67 -13.02 9.34 -12 9 C-10.77606525 6.04215769 -11.03483757 4.00272755 -12 1 C-7.9472484 0.01751476 -4.16138263 -0.08159574 0 0 Z " fill="#616161" transform="translate(136,109)"/>
<path d="M0 0 C0 1.98 0 3.96 0 6 C1.98 6.33 3.96 6.66 6 7 C6 6.34 6 5.68 6 5 C6.99 5 7.98 5 9 5 C8 7 7 9 6 11 C4.02 11 2.04 11 0 11 C0 11.66 0 12.32 0 13 C-2.375 13.1875 -2.375 13.1875 -5 13 C-5.66 12.01 -6.32 11.02 -7 10 C-6.67 10.99 -6.34 11.98 -6 13 C-11.32867983 14.10941367 -16.46281855 14.11548069 -21.875 14.0625 C-22.75414063 14.05798828 -23.63328125 14.05347656 -24.5390625 14.04882812 C-26.69273803 14.03712337 -28.84637817 14.01919069 -31 14 C-31 13.67 -31 13.34 -31 13 C-28.03 13 -25.06 13 -22 13 C-21.34 11.35 -20.68 9.7 -20 8 C-16.7 7.67 -13.4 7.34 -10 7 C-10 6.01 -10 5.02 -10 4 C-10.66 3.67 -11.32 3.34 -12 3 C-12 3.66 -12 4.32 -12 5 C-12.99 4.67 -13.98 4.34 -15 4 C-15.33 3.34 -15.66 2.68 -16 2 C-10.60539047 -0.27141454 -5.73842251 -0.20413361 0 0 Z M-5 7 C-5 7.33 -5 7.66 -5 8 C-3.35 8 -1.7 8 0 8 C0 7.67 0 7.34 0 7 C-1.65 7 -3.3 7 -5 7 Z M9 2 C9.99 2.33 10.98 2.66 12 3 C11.34 3 10.68 3 10 3 C9.67 3.66 9.34 4.32 9 5 C9 4.01 9 3.02 9 2 Z " fill="#2E2E2E" transform="translate(148,112)"/>
<path d="M0 0 C15.84 0 31.68 0 48 0 C48 1.32 48 2.64 48 4 C30.18 4 12.36 4 -6 4 C-6 3.67 -6 3.34 -6 3 C-4.35 3 -2.7 3 -1 3 C-0.67 2.01 -0.34 1.02 0 0 Z " fill="#676767" transform="translate(177,122)"/>
<path d="M0 0 C10.23 0 20.46 0 31 0 C30 3 30 3 28.31738281 4.17529297 C25.40489778 5.21178417 23.01266413 5.22561435 19.921875 5.1953125 C18.18164062 5.18564453 18.18164062 5.18564453 16.40625 5.17578125 C15.1996875 5.15902344 13.993125 5.14226562 12.75 5.125 C10.91695312 5.11146484 10.91695312 5.11146484 9.046875 5.09765625 C6.03105218 5.07409513 3.01562508 5.04119706 0 5 C0 3.35 0 1.7 0 0 Z " fill="#676767" transform="translate(0,109)"/>
<path d="M0 0 C5.94 0 11.88 0 18 0 C17.67 0.99 17.34 1.98 17 3 C17 3.99 17 4.98 17 6 C16.67 6.99 16.34 7.98 16 9 C12.58729758 10.51675663 9.55830874 9.72783588 6 9 C7.32 7.35 8.64 5.7 10 4 C6.7 4 3.4 4 0 4 C-0.33 3.34 -0.66 2.68 -1 2 C-0.67 1.34 -0.34 0.68 0 0 Z M-7 4 C-4.69 4 -2.38 4 0 4 C-0.33 4.99 -0.66 5.98 -1 7 C-0.67 6.67 -0.34 6.34 0 6 C1.66617115 5.95936168 3.33388095 5.957279 5 6 C4.01 6.33 3.02 6.66 2 7 C2 7.99 2 8.98 2 10 C-0.78863007 11.39431504 -2.92078868 11.25660094 -6 11 C-6.66 10.01 -7.32 9.02 -8 8 C-7.34 7.34 -6.68 6.68 -6 6 C-6.33 5.34 -6.66 4.68 -7 4 Z M7 10 C8.65 10 10.3 10 12 10 C12 10.33 12 10.66 12 11 C10.35 11 8.7 11 7 11 C7 10.67 7 10.34 7 10 Z " fill="#151515" transform="translate(136,109)"/>
<path d="M0 0 C-0.33 1.32 -0.66 2.64 -1 4 C0.65 4 2.3 4 4 4 C0.68629 6.20914 -0.3446021 6.22481553 -4.1875 6.125 C-5.08855469 6.10695313 -5.98960938 6.08890625 -6.91796875 6.0703125 C-7.60503906 6.04710938 -8.29210937 6.02390625 -9 6 C-9 6.66 -9 7.32 -9 8 C-10.65 8 -12.3 8 -14 8 C-14 6.35 -14 4.7 -14 3 C-28.19 2.67 -42.38 2.34 -57 2 C-57 1.67 -57 1.34 -57 1 C-51.29327043 0.85518456 -45.58648514 0.71288694 -39.87963867 0.57275391 C-37.94505183 0.52491498 -36.01048082 0.47643105 -34.07592773 0.42724609 C-22.71446532 0.13886917 -11.36551408 -0.07959508 0 0 Z " fill="#5A6872" transform="translate(118,109)"/>
<path d="M0 0 C1.65322266 0.01740234 1.65322266 0.01740234 3.33984375 0.03515625 C4.99693359 0.04869141 4.99693359 0.04869141 6.6875 0.0625 C7.54214844 0.07410156 8.39679687 0.08570312 9.27734375 0.09765625 C9.27734375 1.08765625 9.27734375 2.07765625 9.27734375 3.09765625 C7.62734375 3.42765625 5.97734375 3.75765625 4.27734375 4.09765625 C4.27734375 4.42765625 4.27734375 4.75765625 4.27734375 5.09765625 C1.40234375 5.22265625 1.40234375 5.22265625 -1.72265625 5.09765625 C-2.38265625 4.43765625 -3.04265625 3.77765625 -3.72265625 3.09765625 C-3.72265625 3.75765625 -3.72265625 4.41765625 -3.72265625 5.09765625 C-12.96265625 5.09765625 -22.20265625 5.09765625 -31.72265625 5.09765625 C-31.72265625 4.10765625 -31.72265625 3.11765625 -31.72265625 2.09765625 C-30.87968994 2.0726001 -30.03672363 2.04754395 -29.16821289 2.02172852 C-26.05023951 1.9267747 -22.93244122 1.82753177 -19.81469727 1.7253418 C-18.46351478 1.68194402 -17.11227572 1.64027255 -15.76098633 1.6003418 C-13.82228924 1.54275673 -11.88379349 1.47851327 -9.9453125 1.4140625 C-8.77750244 1.37740479 -7.60969238 1.34074707 -6.40649414 1.30297852 C-3.29803732 1.06517153 -3.13018084 0.11227334 0 0 Z " fill="#A1A1A1" transform="translate(31.72265625,119.90234375)"/>
<path d="M0 0 C13.86 0 27.72 0 42 0 C42 0.99 42 1.98 42 3 C27.81 3 13.62 3 -1 3 C-0.67 2.01 -0.34 1.02 0 0 Z " fill="#828D95" transform="translate(61,118)"/>
<path d="M0 0 C5.80239614 -0.04934656 11.60467081 -0.08569402 17.40722656 -0.10986328 C19.38218309 -0.11993627 21.35712466 -0.13359521 23.33203125 -0.15087891 C26.16670418 -0.17507039 29.00118038 -0.18646991 31.8359375 -0.1953125 C32.72243988 -0.20563507 33.60894226 -0.21595764 34.52230835 -0.22659302 C36.68285952 -0.2269907 38.84293718 -0.12272534 41 0 C41.66 0.66 42.32 1.32 43 2 C28.81 2 14.62 2 0 2 C0 1.34 0 0.68 0 0 Z M1 3 C0.67 3.99 0.34 4.98 0 6 C-3.28976808 7.09658936 -4.71303767 6.79953138 -8 6 C-8 5.01 -8 4.02 -8 3 C-4.67465243 1.89155081 -2.37817425 2.15545644 1 3 Z " fill="#4B5964" transform="translate(60,115)"/>
<path d="M0 0 C0 1.32 0 2.64 0 4 C-1.65 4.33 -3.3 4.66 -5 5 C-4.67 6.65 -4.34 8.3 -4 10 C-5.98 10.99 -5.98 10.99 -8 12 C-6.35 12.33 -4.7 12.66 -3 13 C-3 13.33 -3 13.66 -3 14 C-5.31 14 -7.62 14 -10 14 C-10 14.66 -10 15.32 -10 16 C-12.31 16 -14.62 16 -17 16 C-17 14.35 -17 12.7 -17 11 C-15.35 10.67 -13.7 10.34 -12 10 C-11.15545644 6.62182575 -10.89155081 4.32534757 -12 1 C-7.9472484 0.01751476 -4.16138263 -0.08159574 0 0 Z " fill="#929292" transform="translate(136,109)"/>
<path d="M0 0 C3.63 0 7.26 0 11 0 C10.01 1.485 10.01 1.485 9 3 C9 3.99 9 4.98 9 6 C8.68911632 7.67099977 8.35919668 9.33871537 8 11 C1.25 10.25 1.25 10.25 -1 8 C-3.68839385 7.73008094 -6.29141936 7.91262643 -9 8 C-9 7.34 -9 6.68 -9 6 C-5.7 5.67 -2.4 5.34 1 5 C0.34 4.67 -0.32 4.34 -1 4 C-0.67 2.68 -0.34 1.36 0 0 Z M-9 8 C-9 8.66 -9 9.32 -9 10 C-10.65 10 -12.3 10 -14 10 C-11 8 -11 8 -9 8 Z " fill="#373737" transform="translate(118,109)"/>
<path d="M0 0 C-1 3 -1 3 -3 4.125 C-3.66 4.41375 -4.32 4.7025 -5 5 C-5.33 5.33 -5.66 5.66 -6 6 C-7.41225046 6.0928726 -8.82908934 6.11746772 -10.24438477 6.11352539 C-11.14524307 6.11344986 -12.04610138 6.11337433 -12.97425842 6.11329651 C-13.95341721 6.10813522 -14.93257599 6.10297394 -15.94140625 6.09765625 C-16.93881332 6.0962413 -17.9362204 6.09482635 -18.96385193 6.09336853 C-22.16343124 6.08775114 -25.36294169 6.07519571 -28.5625 6.0625 C-30.72591045 6.05748724 -32.88932199 6.05292395 -35.05273438 6.04882812 C-40.36851325 6.03777607 -45.68425171 6.02102104 -51 6 C-51 5.67 -51 5.34 -51 5 C-41.76 5 -32.52 5 -23 5 C-23 4.34 -23 3.68 -23 3 C-18.66666667 3 -14.33333333 3 -10 3 C-9.67 2.34 -9.34 1.68 -9 1 C-5.99083491 -0.07470182 -3.17106439 -0.08808512 0 0 Z " fill="#010101" transform="translate(51,120)"/>
<path d="M0 0 C2.875 -0.125 2.875 -0.125 6 0 C6.66 0.66 7.32 1.32 8 2 C8 1.34 8 0.68 8 0 C10.86724686 0.57344937 11.8614515 0.8614515 14 3 C8.33357449 4.22517308 2.76291482 4.09228867 -3 4 C-3 3.34 -3 2.68 -3 2 C-2.01 2 -1.02 2 0 2 C0 1.34 0 0.68 0 0 Z M14 0 C29.84 0 45.68 0 62 0 C62 0.33 62 0.66 62 1 C46.16 1.33 30.32 1.66 14 2 C14 1.34 14 0.68 14 0 Z M6 4 C8 5 8 5 8 5 Z " fill="#000000" transform="translate(163,113)"/>
<path d="M0 0 C6.27 0 12.54 0 19 0 C19 0.66 19 1.32 19 2 C18.40832031 1.96519531 17.81664063 1.93039063 17.20703125 1.89453125 C12.04630787 1.71773648 9.3853821 2.1148802 5 5 C1.375 5.8125 1.375 5.8125 -2 6 C-2.99 5.34 -3.98 4.68 -5 4 C-3.35 3.34 -1.7 2.68 0 2 C0 1.34 0 0.68 0 0 Z M-6 6 C-2 7 -2 7 -2 7 Z " fill="#232323" transform="translate(36,109)"/>
<path d="M0 0 C2.16874252 0.50603992 3.99967627 0.99983813 6 2 C6 1.34 6 0.68 6 0 C7.65 0 9.3 0 11 0 C10.67 0.99 10.34 1.98 10 3 C10.66 3.66 11.32 4.32 12 5 C11.195625 5.12375 10.39125 5.2475 9.5625 5.375 C8.2940625 5.684375 8.2940625 5.684375 7 6 C6.67 6.66 6.34 7.32 6 8 C7.32 8 8.64 8 10 8 C10 7.34 10 6.68 10 6 C13 7 13 7 14 9 C9.38 9 4.76 9 0 9 C0 8.01 0 7.02 0 6 C1.32 5.34 2.64 4.68 4 4 C2.35 3.67 0.7 3.34 -1 3 C-0.67 2.01 -0.34 1.02 0 0 Z M-3 4 C0 5 0 5 0 5 Z " fill="#000000" transform="translate(45,117)"/>
<path d="M0 0 C1.2065625 0.0309375 1.2065625 0.0309375 2.4375 0.0625 C2.4375 1.0525 2.4375 2.0425 2.4375 3.0625 C0.4575 3.0625 -1.5225 3.0625 -3.5625 3.0625 C-3.5625 3.7225 -3.5625 4.3825 -3.5625 5.0625 C-4.2225 5.0625 -4.8825 5.0625 -5.5625 5.0625 C-5.8925 6.3825 -6.2225 7.7025 -6.5625 9.0625 C-8.8725 9.0625 -11.1825 9.0625 -13.5625 9.0625 C-13.8925 7.7425 -14.2225 6.4225 -14.5625 5.0625 C-13.38880859 4.64677734 -13.38880859 4.64677734 -12.19140625 4.22265625 C-11.17949219 3.86042969 -10.16757812 3.49820313 -9.125 3.125 C-8.11566406 2.76535156 -7.10632812 2.40570313 -6.06640625 2.03515625 C-0.88273411 0.0215301 -0.88273411 0.0215301 0 0 Z M-19.5625 7.0625 C-17.9125 7.0625 -16.2625 7.0625 -14.5625 7.0625 C-14.5625 7.3925 -14.5625 7.7225 -14.5625 8.0625 C-16.2125 8.0625 -17.8625 8.0625 -19.5625 8.0625 C-19.5625 7.7325 -19.5625 7.4025 -19.5625 7.0625 Z " fill="#646464" transform="translate(48.5625,109.9375)"/>
<path d="M0 0 C2.97 0 5.94 0 9 0 C8.67 0.99 8.34 1.98 8 3 C8 3.99 8 4.98 8 6 C7.67 6.99 7.34 7.98 7 9 C3.58729758 10.51675663 0.55830874 9.72783588 -3 9 C-1.68 7.35 -0.36 5.7 1 4 C0.01 3.34 -0.98 2.68 -2 2 C-1.34 2 -0.68 2 0 2 C0 1.34 0 0.68 0 0 Z M-2 10 C-0.35 10 1.3 10 3 10 C3 10.33 3 10.66 3 11 C1.35 11 -0.3 11 -2 11 C-2 10.67 -2 10.34 -2 10 Z " fill="#000000" transform="translate(145,109)"/>
<path d="M0 0 C0.99 0.33 1.98 0.66 3 1 C2.34 1 1.68 1 1 1 C0.67 1.66 0.34 2.32 0 3 C0 2.01 0 1.02 0 0 Z M-3 3 C-2.01 3 -1.02 3 0 3 C-1 5 -2 7 -3 9 C-4.98 9 -6.96 9 -9 9 C-9 9.66 -9 10.32 -9 11 C-10.65 11 -12.3 11 -14 11 C-14.33 9.35 -14.66 7.7 -15 6 C-9.06 5.505 -9.06 5.505 -3 5 C-3 4.34 -3 3.68 -3 3 Z " fill="#797979" transform="translate(157,114)"/>
<path d="M0 0 C0 0.66 0 1.32 0 2 C-0.99 2 -1.98 2 -3 2 C-3 2.66 -3 3.32 -3 4 C-4.98 4.66 -6.96 5.32 -9 6 C-9 6.66 -9 7.32 -9 8 C-10.65 8 -12.3 8 -14 8 C-14.3125 5.6875 -14.3125 5.6875 -14 3 C-9.89965696 -0.83580478 -5.26508245 -0.30971073 0 0 Z " fill="#757575" transform="translate(163,109)"/>
<path d="M0 0 C1.98 0 3.96 0 6 0 C6 0.99 6 1.98 6 3 C1.93631321 3.77403558 -1.86425173 4.0984702 -6 4 C-6 3.34 -6 2.68 -6 2 C-4.02 2 -2.04 2 0 2 C0 1.34 0 0.68 0 0 Z M-34 4 C-24.76 4 -15.52 4 -6 4 C-6 4.33 -6 4.66 -6 5 C-15.24 5 -24.48 5 -34 5 C-34 4.67 -34 4.34 -34 4 Z " fill="#010101" transform="translate(34,117)"/>
<path d="M0 0 C0 1.32 0 2.64 0 4 C-2.31 4 -4.62 4 -7 4 C-7.33 5.32 -7.66 6.64 -8 8 C-8.99 7.67 -9.98 7.34 -11 7 C-11.33 5.02 -11.66 3.04 -12 1 C-7.9472484 0.01751476 -4.16138263 -0.08159574 0 0 Z " fill="#7C7C7C" transform="translate(136,109)"/>
<path d="M0 0 C2.31 0 4.62 0 7 0 C8.125 4.75 8.125 4.75 7 7 C3.7 7 0.4 7 -3 7 C-2.34 5.68 -1.68 4.36 -1 3 C-0.67 2.01 -0.34 1.02 0 0 Z M8 2 C8.99 2.33 9.98 2.66 11 3 C10.01 3.33 9.02 3.66 8 4 C8 3.34 8 2.68 8 2 Z " fill="#000000" transform="translate(163,119)"/>
<path d="M0 0 C3.63 0 7.26 0 11 0 C10.01 1.485 10.01 1.485 9 3 C9.33 3.66 9.66 4.32 10 5 C5.545 5.495 5.545 5.495 1 6 C0.34 4.68 -0.32 3.36 -1 2 C-0.67 1.34 -0.34 0.68 0 0 Z " fill="#2F2F2F" transform="translate(118,109)"/>
<path d="M0 0 C0.33 1.98 0.66 3.96 1 6 C-1.3125 6.625 -1.3125 6.625 -4 7 C-7 5 -7 5 -8 2 C-4.77208445 -0.1519437 -3.71599191 -0.20086443 0 0 Z M-8 4 C-8 4.66 -8 5.32 -8 6 C-9.65 6 -11.3 6 -13 6 C-10 4 -10 4 -8 4 Z " fill="#5A5A5A" transform="translate(162,119)"/>
<path d="M0 0 C2.35694954 0.09031574 4.71153582 0.24688128 7.0625 0.4375 C8.35285156 0.53933594 9.64320312 0.64117187 10.97265625 0.74609375 C12.47119141 0.87177734 12.47119141 0.87177734 14 1 C14 1.66 14 2.32 14 3 C11.03 3 8.06 3 5 3 C5 3.66 5 4.32 5 5 C3.35 5 1.7 5 0 5 C-0.5625 3.0625 -0.5625 3.0625 -1 1 C-0.67 0.67 -0.34 0.34 0 0 Z M-2 3 C-1.67 3.66 -1.34 4.32 -1 5 C-1.66 4.67 -2.32 4.34 -3 4 C-2.67 3.67 -2.34 3.34 -2 3 Z " fill="#6E6E6E" transform="translate(46,114)"/>
<path d="M0 0 C0 0.99 0 1.98 0 3 C-1.98 3 -3.96 3 -6 3 C-6 3.66 -6 4.32 -6 5 C-8.16874252 4.49396008 -9.99967627 4.00016187 -12 3 C-12 3.66 -12 4.32 -12 5 C-12.99 4.67 -13.98 4.34 -15 4 C-15.33 3.34 -15.66 2.68 -16 2 C-10.60539047 -0.27141454 -5.73842251 -0.20413361 0 0 Z " fill="#9D9D9D" transform="translate(148,112)"/>
<path d="M0 0 C0.89203125 0.00902344 1.7840625 0.01804687 2.703125 0.02734375 C3.37859375 0.03894531 4.0540625 0.05054687 4.75 0.0625 C4.75 1.0525 4.75 2.0425 4.75 3.0625 C2.11 3.0625 -0.53 3.0625 -3.25 3.0625 C-3.25 3.7225 -3.25 4.3825 -3.25 5.0625 C-3.91 4.7325 -4.57 4.4025 -5.25 4.0625 C-5.58 4.3925 -5.91 4.7225 -6.25 5.0625 C-6.58 4.4025 -6.91 3.7425 -7.25 3.0625 C-7.91 3.0625 -8.57 3.0625 -9.25 3.0625 C-9.25 2.4025 -9.25 1.7425 -9.25 1.0625 C-6.09493858 0.12630187 -3.28413498 -0.0432123 0 0 Z M-10.25 3.0625 C-9.59 3.7225 -8.93 4.3825 -8.25 5.0625 C-9.24 4.7325 -10.23 4.4025 -11.25 4.0625 C-10.92 3.7325 -10.59 3.4025 -10.25 3.0625 Z " fill="#636363" transform="translate(166.25,115.9375)"/>
<path d="M0 0 C2.51083114 1.25541557 2.87125446 2.50063488 4 5 C-6.55808656 6.33257403 -6.55808656 6.33257403 -11 5 C-11 4.67 -11 4.34 -11 4 C-9.39125 3.566875 -9.39125 3.566875 -7.75 3.125 C-4.16546862 2.17357654 -4.16546862 2.17357654 -1.6875 0.8125 C-1.130625 0.544375 -0.57375 0.27625 0 0 Z " fill="#777777" transform="translate(138,120)"/>
<path d="M0 0 C4.16138263 -0.08159574 7.9472484 0.01751476 12 1 C8.68629 3.20914 7.6553979 3.22481553 3.8125 3.125 C2.91144531 3.10695313 2.01039062 3.08890625 1.08203125 3.0703125 C0.39496094 3.04710938 -0.29210937 3.02390625 -1 3 C-0.67 2.01 -0.34 1.02 0 0 Z M-1 3 C-1 3.66 -1 4.32 -1 5 C-2.65 5 -4.3 5 -6 5 C-3 3 -3 3 -1 3 Z " fill="#7E7E7E" transform="translate(110,116)"/>
<path d="M0 0 C1.2065625 0.0309375 1.2065625 0.0309375 2.4375 0.0625 C2.4375 1.0525 2.4375 2.0425 2.4375 3.0625 C0.4575 3.0625 -1.5225 3.0625 -3.5625 3.0625 C-3.5625 3.7225 -3.5625 4.3825 -3.5625 5.0625 C-6.5325 5.0625 -9.5025 5.0625 -12.5625 5.0625 C-12.5625 4.7325 -12.5625 4.4025 -12.5625 4.0625 C-11.92441406 3.85753906 -11.28632812 3.65257813 -10.62890625 3.44140625 C-9.80261719 3.17199219 -8.97632813 2.90257813 -8.125 2.625 C-7.30128906 2.35816406 -6.47757813 2.09132813 -5.62890625 1.81640625 C-0.69684453 0.01699621 -0.69684453 0.01699621 0 0 Z " fill="#969797" transform="translate(48.5625,109.9375)"/>
<path d="M0 0 C-0.33 0.99 -0.66 1.98 -1 3 C-4.28976808 4.09658936 -5.71303767 3.79953138 -9 3 C-9 2.01 -9 1.02 -9 0 C-5.67465243 -1.10844919 -3.37817425 -0.84454356 0 0 Z " fill="#353535" transform="translate(61,118)"/>
<path d="M0 0 C0.66 0.33 1.32 0.66 2 1 C1.67 1.99 1.34 2.98 1 4 C-0.65 4 -2.3 4 -4 4 C-4.33 3.34 -4.66 2.68 -5 2 C-3.35 2 -1.7 2 0 2 C0 1.34 0 0.68 0 0 Z M-6 4 C-5.01 4.33 -4.02 4.66 -3 5 C-3.99 5.33 -4.98 5.66 -6 6 C-6 5.34 -6 4.68 -6 4 Z M-2 4 C-1.34 4 -0.68 4 0 4 C0 4.66 0 5.32 0 6 C-0.66 6 -1.32 6 -2 6 C-2 5.34 -2 4.68 -2 4 Z M-6 6 C-6 6.66 -6 7.32 -6 8 C-7.65 8 -9.3 8 -11 8 C-8 6 -8 6 -6 6 Z " fill="#404040" transform="translate(160,111)"/>
<path d="M0 0 C-1 3 -1 3 -2.75 4.1875 C-5.29960574 5.10819096 -7.30923081 5.14948718 -10 5 C-9 2 -9 2 -7.25 0.8125 C-4.70039426 -0.10819096 -2.69076919 -0.14948718 0 0 Z " fill="#A4A4A4" transform="translate(51,120)"/>
<path d="M0 0 C1.32 0.33 2.64 0.66 4 1 C2.68 1.33 1.36 1.66 0 2 C0 1.34 0 0.68 0 0 Z M-2 2 C-1.34 2 -0.68 2 0 2 C-0.185625 2.61875 -0.37125 3.2375 -0.5625 3.875 C-1.23686176 6.04160178 -1.23686176 6.04160178 0 8 C-1.65 7.67 -3.3 7.34 -5 7 C-4.34 6.67 -3.68 6.34 -3 6 C-2.34786708 3.97536745 -2.34786708 3.97536745 -2 2 Z " fill="#2E2E2E" transform="translate(45,113)"/>
<path d="M0 0 C1.65 0 3.3 0 5 0 C5 0.99 5 1.98 5 3 C3.02 3 1.04 3 -1 3 C-0.67 2.01 -0.34 1.02 0 0 Z M-2 3 C-1.67 3.66 -1.34 4.32 -1 5 C-1.66 4.67 -2.32 4.34 -3 4 C-2.67 3.67 -2.34 3.34 -2 3 Z " fill="#9F9F9F" transform="translate(46,114)"/>
<path d="M0 0 C0.99 0.33 1.98 0.66 3 1 C4.66362417 1.34820041 6.32995171 1.68404492 8 2 C8 2.33 8 2.66 8 3 C1.9453125 3.9765625 1.9453125 3.9765625 0 4 C-0.66 3.34 -1.32 2.68 -2 2 C-1.34 2 -0.68 2 0 2 C0 1.34 0 0.68 0 0 Z M-2 4 C0 5 0 5 0 5 Z " fill="#000000" transform="translate(51,111)"/>
<path d="M0 0 C1.98 0 3.96 0 6 0 C5.67 0.99 5.34 1.98 5 3 C3.0625 3.8125 3.0625 3.8125 1 4 C0.34 3.34 -0.32 2.68 -1 2 C-0.67 1.34 -0.34 0.68 0 0 Z " fill="#080808" transform="translate(25,109)"/>
</svg>
